<svg xmlns="http://www.w3.org/2000/svg" xmlns:xlink="http://www.w3.org/1999/xlink" viewBox="0,0,256,256" width="25px" height="25px" fill-rule="nonzero"><g fill="#ffffff" fill-rule="nonzero" stroke="none" stroke-width="1" stroke-linecap="butt" stroke-linejoin="miter" stroke-miterlimit="10" stroke-dasharray="" stroke-dashoffset="0" font-family="none" font-weight="none" font-size="none" text-anchor="none" style="mix-blend-mode: normal"><g transform="scale(5.12,5.12)"><path d="M24.84961,10c-13.772,0 -14.84961,1.07761 -14.84961,14.84961v0.30078c0,13.772 1.07761,14.84961 14.84961,14.84961h0.30078c13.772,0 14.84961,-1.07761 14.84961,-14.84961v-0.30078c0,-13.772 -1.07761,-14.84961 -14.84961,-14.84961zM33.49609,15c0.829,-0.002 1.50191,0.66709 1.50391,1.49609c0.002,0.829 -0.66709,1.50191 -1.49609,1.50391c-0.829,0.002 -1.50191,-0.66709 -1.50391,-1.49609c-0.002,-0.829 0.66709,-1.50191 1.49609,-1.50391zM24.98047,17c4.418,-0.01 8.00853,3.56247 8.01953,7.98047c0.01,4.418 -3.56247,8.00853 -7.98047,8.01953c-4.418,0.011 -8.00853,-3.56247 -8.01953,-7.98047c-0.01,-4.418 3.56247,-8.00853 7.98047,-8.01953zM24.98242,18c-3.866,0.009 -6.99142,3.15158 -6.98242,7.01758c0.009,3.866 3.15158,6.99142 7.01758,6.98242c3.866,-0.009 6.99142,-3.15158 6.98242,-7.01758c-0.009,-3.866 -3.15158,-6.99142 -7.01758,-6.98242z"></path></g></g></svg>